<mxfile host="Electron" modified="2023-12-25T20:27:07.149Z" agent="Mozilla/5.0 (Windows NT 10.0; Win64; x64) AppleWebKit/537.36 (KHTML, like Gecko) draw.io/22.0.3 Chrome/114.0.5735.289 Electron/25.8.4 Safari/537.36" etag="WiWkEhwy4gqAFJZk2SST" version="22.0.3" type="device" pages="7">
  <diagram name="main" id="lazlIpi1OaGIUPXyTEgX">
    <mxGraphModel dx="913" dy="582" grid="0" gridSize="10" guides="1" tooltips="1" connect="1" arrows="1" fold="1" page="1" pageScale="1" pageWidth="827" pageHeight="1169" background="#FFFFFF" math="0" shadow="0">
      <root>
        <mxCell id="0" />
        <mxCell id="1" parent="0" />
        <mxCell id="_uFk6j54CqaUpoAv_oYZ-33" style="edgeStyle=orthogonalEdgeStyle;rounded=0;orthogonalLoop=1;jettySize=auto;html=1;entryX=0.5;entryY=0;entryDx=0;entryDy=0;endArrow=none;endFill=0;" parent="1" source="_uFk6j54CqaUpoAv_oYZ-1" target="_uFk6j54CqaUpoAv_oYZ-9" edge="1">
          <mxGeometry relative="1" as="geometry" />
        </mxCell>
        <mxCell id="_uFk6j54CqaUpoAv_oYZ-1" value="Начало" style="strokeWidth=2;html=1;shape=mxgraph.flowchart.terminator;whiteSpace=wrap;fontSize=10;" parent="1" vertex="1">
          <mxGeometry x="60" y="31" width="100" height="50" as="geometry" />
        </mxCell>
        <mxCell id="_uFk6j54CqaUpoAv_oYZ-2" value="Конец" style="strokeWidth=2;html=1;shape=mxgraph.flowchart.terminator;whiteSpace=wrap;fontSize=10;" parent="1" vertex="1">
          <mxGeometry x="60" y="1091" width="100" height="50" as="geometry" />
        </mxCell>
        <mxCell id="_uFk6j54CqaUpoAv_oYZ-7" value="" style="group" parent="1" vertex="1" connectable="0">
          <mxGeometry x="65" y="99" width="90" height="55" as="geometry" />
        </mxCell>
        <mxCell id="_uFk6j54CqaUpoAv_oYZ-8" value="&lt;font style=&quot;font-size: 10px;&quot;&gt;Ввод текста&lt;/font&gt;" style="rounded=0;whiteSpace=wrap;html=1;absoluteArcSize=1;arcSize=14;strokeWidth=2;" parent="_uFk6j54CqaUpoAv_oYZ-7" vertex="1">
          <mxGeometry y="12.692307692307692" width="90" height="55" as="geometry" />
        </mxCell>
        <mxCell id="_uFk6j54CqaUpoAv_oYZ-9" value="&lt;font style=&quot;font-size: 10px;&quot;&gt;А1&lt;/font&gt;" style="rounded=0;whiteSpace=wrap;html=1;absoluteArcSize=1;arcSize=14;strokeWidth=2;" parent="_uFk6j54CqaUpoAv_oYZ-7" vertex="1">
          <mxGeometry width="90" height="12.692307692307692" as="geometry" />
        </mxCell>
        <mxCell id="_uFk6j54CqaUpoAv_oYZ-35" style="edgeStyle=orthogonalEdgeStyle;rounded=0;orthogonalLoop=1;jettySize=auto;html=1;entryX=0.5;entryY=0;entryDx=0;entryDy=0;endArrow=none;endFill=0;" parent="1" source="_uFk6j54CqaUpoAv_oYZ-10" target="_uFk6j54CqaUpoAv_oYZ-11" edge="1">
          <mxGeometry relative="1" as="geometry" />
        </mxCell>
        <mxCell id="dgIqNS8lULQfI-P5dz8t-2" value="&amp;nbsp;да&amp;nbsp;" style="edgeLabel;html=1;align=center;verticalAlign=middle;resizable=0;points=[];" parent="_uFk6j54CqaUpoAv_oYZ-35" vertex="1" connectable="0">
          <mxGeometry x="-0.4407" relative="1" as="geometry">
            <mxPoint as="offset" />
          </mxGeometry>
        </mxCell>
        <mxCell id="_uFk6j54CqaUpoAv_oYZ-50" value="" style="edgeStyle=orthogonalEdgeStyle;rounded=0;orthogonalLoop=1;jettySize=auto;html=1;endArrow=none;endFill=0;" parent="1" source="_uFk6j54CqaUpoAv_oYZ-10" target="_uFk6j54CqaUpoAv_oYZ-46" edge="1">
          <mxGeometry relative="1" as="geometry" />
        </mxCell>
        <mxCell id="_uFk6j54CqaUpoAv_oYZ-10" value="ввод удался?" style="strokeWidth=2;html=1;shape=mxgraph.flowchart.decision;whiteSpace=wrap;fontSize=10;" parent="1" vertex="1">
          <mxGeometry x="60" y="193" width="100" height="50" as="geometry" />
        </mxCell>
        <mxCell id="_uFk6j54CqaUpoAv_oYZ-36" value="" style="edgeStyle=orthogonalEdgeStyle;rounded=0;orthogonalLoop=1;jettySize=auto;html=1;endArrow=none;endFill=0;" parent="1" source="_uFk6j54CqaUpoAv_oYZ-11" target="_uFk6j54CqaUpoAv_oYZ-12" edge="1">
          <mxGeometry relative="1" as="geometry" />
        </mxCell>
        <mxCell id="_uFk6j54CqaUpoAv_oYZ-11" value="ввод oldWord" style="shape=parallelogram;html=1;strokeWidth=2;perimeter=parallelogramPerimeter;whiteSpace=wrap;rounded=0;arcSize=12;size=0.23;fontSize=10;" parent="1" vertex="1">
          <mxGeometry x="176" y="263" width="100" height="50" as="geometry" />
        </mxCell>
        <mxCell id="_uFk6j54CqaUpoAv_oYZ-37" style="edgeStyle=orthogonalEdgeStyle;rounded=0;orthogonalLoop=1;jettySize=auto;html=1;entryX=0.5;entryY=0;entryDx=0;entryDy=0;endArrow=none;endFill=0;" parent="1" source="_uFk6j54CqaUpoAv_oYZ-12" target="_uFk6j54CqaUpoAv_oYZ-24" edge="1">
          <mxGeometry relative="1" as="geometry" />
        </mxCell>
        <mxCell id="dgIqNS8lULQfI-P5dz8t-3" value="&amp;nbsp;да&amp;nbsp;" style="edgeLabel;html=1;align=center;verticalAlign=middle;resizable=0;points=[];" parent="_uFk6j54CqaUpoAv_oYZ-37" vertex="1" connectable="0">
          <mxGeometry x="-0.5083" relative="1" as="geometry">
            <mxPoint as="offset" />
          </mxGeometry>
        </mxCell>
        <mxCell id="_uFk6j54CqaUpoAv_oYZ-52" value="" style="edgeStyle=orthogonalEdgeStyle;rounded=0;orthogonalLoop=1;jettySize=auto;html=1;endArrow=none;endFill=0;" parent="1" source="_uFk6j54CqaUpoAv_oYZ-12" target="_uFk6j54CqaUpoAv_oYZ-47" edge="1">
          <mxGeometry relative="1" as="geometry" />
        </mxCell>
        <mxCell id="_uFk6j54CqaUpoAv_oYZ-12" value="ввод удался?" style="strokeWidth=2;html=1;shape=mxgraph.flowchart.decision;whiteSpace=wrap;fontSize=10;" parent="1" vertex="1">
          <mxGeometry x="176" y="344" width="100" height="50" as="geometry" />
        </mxCell>
        <mxCell id="_uFk6j54CqaUpoAv_oYZ-39" style="edgeStyle=orthogonalEdgeStyle;rounded=0;orthogonalLoop=1;jettySize=auto;html=1;entryX=0.5;entryY=0;entryDx=0;entryDy=0;endArrow=none;endFill=0;" parent="1" source="_uFk6j54CqaUpoAv_oYZ-14" target="_uFk6j54CqaUpoAv_oYZ-15" edge="1">
          <mxGeometry relative="1" as="geometry" />
        </mxCell>
        <mxCell id="dgIqNS8lULQfI-P5dz8t-4" value="&amp;nbsp;да&amp;nbsp;" style="edgeLabel;html=1;align=center;verticalAlign=middle;resizable=0;points=[];" parent="_uFk6j54CqaUpoAv_oYZ-39" vertex="1" connectable="0">
          <mxGeometry x="-0.4079" y="1" relative="1" as="geometry">
            <mxPoint as="offset" />
          </mxGeometry>
        </mxCell>
        <mxCell id="_uFk6j54CqaUpoAv_oYZ-54" value="" style="edgeStyle=orthogonalEdgeStyle;rounded=0;orthogonalLoop=1;jettySize=auto;html=1;endArrow=none;endFill=0;" parent="1" source="_uFk6j54CqaUpoAv_oYZ-14" target="_uFk6j54CqaUpoAv_oYZ-48" edge="1">
          <mxGeometry relative="1" as="geometry" />
        </mxCell>
        <mxCell id="_uFk6j54CqaUpoAv_oYZ-14" value="слово валидно?" style="strokeWidth=2;html=1;shape=mxgraph.flowchart.decision;whiteSpace=wrap;fontSize=10;" parent="1" vertex="1">
          <mxGeometry x="297.5" y="528" width="100" height="50" as="geometry" />
        </mxCell>
        <mxCell id="_uFk6j54CqaUpoAv_oYZ-40" value="" style="edgeStyle=orthogonalEdgeStyle;rounded=0;orthogonalLoop=1;jettySize=auto;html=1;endArrow=none;endFill=0;" parent="1" source="_uFk6j54CqaUpoAv_oYZ-15" target="_uFk6j54CqaUpoAv_oYZ-16" edge="1">
          <mxGeometry relative="1" as="geometry" />
        </mxCell>
        <mxCell id="_uFk6j54CqaUpoAv_oYZ-15" value="ввод newWord" style="shape=parallelogram;html=1;strokeWidth=2;perimeter=parallelogramPerimeter;whiteSpace=wrap;rounded=0;arcSize=12;size=0.23;fontSize=10;" parent="1" vertex="1">
          <mxGeometry x="447.5" y="606" width="100.5" height="50" as="geometry" />
        </mxCell>
        <mxCell id="_uFk6j54CqaUpoAv_oYZ-41" style="edgeStyle=orthogonalEdgeStyle;rounded=0;orthogonalLoop=1;jettySize=auto;html=1;entryX=0.5;entryY=0;entryDx=0;entryDy=0;endArrow=none;endFill=0;" parent="1" source="_uFk6j54CqaUpoAv_oYZ-16" target="_uFk6j54CqaUpoAv_oYZ-28" edge="1">
          <mxGeometry relative="1" as="geometry" />
        </mxCell>
        <mxCell id="dgIqNS8lULQfI-P5dz8t-5" value="&amp;nbsp;да&amp;nbsp;" style="edgeLabel;html=1;align=center;verticalAlign=middle;resizable=0;points=[];" parent="_uFk6j54CqaUpoAv_oYZ-41" vertex="1" connectable="0">
          <mxGeometry x="-0.4016" y="-1" relative="1" as="geometry">
            <mxPoint as="offset" />
          </mxGeometry>
        </mxCell>
        <mxCell id="_uFk6j54CqaUpoAv_oYZ-56" value="" style="edgeStyle=orthogonalEdgeStyle;rounded=0;orthogonalLoop=1;jettySize=auto;html=1;endArrow=none;endFill=0;" parent="1" source="_uFk6j54CqaUpoAv_oYZ-16" target="_uFk6j54CqaUpoAv_oYZ-49" edge="1">
          <mxGeometry relative="1" as="geometry" />
        </mxCell>
        <mxCell id="_uFk6j54CqaUpoAv_oYZ-16" value="ввод удался?" style="strokeWidth=2;html=1;shape=mxgraph.flowchart.decision;whiteSpace=wrap;fontSize=10;" parent="1" vertex="1">
          <mxGeometry x="447.5" y="690" width="100" height="50" as="geometry" />
        </mxCell>
        <mxCell id="_uFk6j54CqaUpoAv_oYZ-18" value="" style="group" parent="1" vertex="1" connectable="0">
          <mxGeometry x="564" y="867" width="113" height="75" as="geometry" />
        </mxCell>
        <mxCell id="_uFk6j54CqaUpoAv_oYZ-19" value="&lt;font style=&quot;font-size: 10px;&quot;&gt;replaceWord(&lt;br&gt;src, oldWord,&lt;br&gt;newWord, dest)&lt;br&gt;&lt;/font&gt;" style="rounded=0;whiteSpace=wrap;html=1;absoluteArcSize=1;arcSize=14;strokeWidth=2;" parent="_uFk6j54CqaUpoAv_oYZ-18" vertex="1">
          <mxGeometry x="19" width="75" height="75" as="geometry" />
        </mxCell>
        <mxCell id="_uFk6j54CqaUpoAv_oYZ-20" value="" style="rounded=0;whiteSpace=wrap;html=1;absoluteArcSize=1;arcSize=14;strokeWidth=2;" parent="_uFk6j54CqaUpoAv_oYZ-18" vertex="1">
          <mxGeometry x="94" width="19" height="75" as="geometry" />
        </mxCell>
        <mxCell id="_uFk6j54CqaUpoAv_oYZ-21" value="" style="rounded=0;whiteSpace=wrap;html=1;absoluteArcSize=1;arcSize=14;strokeWidth=2;" parent="_uFk6j54CqaUpoAv_oYZ-18" vertex="1">
          <mxGeometry width="19" height="75" as="geometry" />
        </mxCell>
        <mxCell id="_uFk6j54CqaUpoAv_oYZ-23" value="" style="group" parent="1" vertex="1" connectable="0">
          <mxGeometry x="291" y="432" width="113" height="75" as="geometry" />
        </mxCell>
        <mxCell id="_uFk6j54CqaUpoAv_oYZ-24" value="&lt;font style=&quot;font-size: 10px;&quot;&gt;removeNewline(&lt;br style=&quot;border-color: var(--border-color);&quot;&gt;str)&lt;/font&gt;" style="rounded=0;whiteSpace=wrap;html=1;absoluteArcSize=1;arcSize=14;strokeWidth=2;" parent="_uFk6j54CqaUpoAv_oYZ-23" vertex="1">
          <mxGeometry x="19" width="75" height="75" as="geometry" />
        </mxCell>
        <mxCell id="_uFk6j54CqaUpoAv_oYZ-25" value="" style="rounded=0;whiteSpace=wrap;html=1;absoluteArcSize=1;arcSize=14;strokeWidth=2;" parent="_uFk6j54CqaUpoAv_oYZ-23" vertex="1">
          <mxGeometry x="94" width="19" height="75" as="geometry" />
        </mxCell>
        <mxCell id="_uFk6j54CqaUpoAv_oYZ-26" value="" style="rounded=0;whiteSpace=wrap;html=1;absoluteArcSize=1;arcSize=14;strokeWidth=2;" parent="_uFk6j54CqaUpoAv_oYZ-23" vertex="1">
          <mxGeometry width="19" height="75" as="geometry" />
        </mxCell>
        <mxCell id="_uFk6j54CqaUpoAv_oYZ-27" value="" style="group" parent="1" vertex="1" connectable="0">
          <mxGeometry x="564" y="764" width="113" height="75" as="geometry" />
        </mxCell>
        <mxCell id="_uFk6j54CqaUpoAv_oYZ-28" value="&lt;font style=&quot;font-size: 10px;&quot;&gt;removeNewline(&lt;br&gt;str)&lt;br&gt;&lt;/font&gt;" style="rounded=0;whiteSpace=wrap;html=1;absoluteArcSize=1;arcSize=14;strokeWidth=2;" parent="_uFk6j54CqaUpoAv_oYZ-27" vertex="1">
          <mxGeometry x="19" width="75" height="75" as="geometry" />
        </mxCell>
        <mxCell id="_uFk6j54CqaUpoAv_oYZ-29" value="" style="rounded=0;whiteSpace=wrap;html=1;absoluteArcSize=1;arcSize=14;strokeWidth=2;" parent="_uFk6j54CqaUpoAv_oYZ-27" vertex="1">
          <mxGeometry x="94" width="19" height="75" as="geometry" />
        </mxCell>
        <mxCell id="_uFk6j54CqaUpoAv_oYZ-30" value="" style="rounded=0;whiteSpace=wrap;html=1;absoluteArcSize=1;arcSize=14;strokeWidth=2;" parent="_uFk6j54CqaUpoAv_oYZ-27" vertex="1">
          <mxGeometry width="19" height="75" as="geometry" />
        </mxCell>
        <mxCell id="_uFk6j54CqaUpoAv_oYZ-31" value="исходная и &lt;br&gt;обработанная строки" style="shape=parallelogram;html=1;strokeWidth=2;perimeter=parallelogramPerimeter;whiteSpace=wrap;rounded=0;arcSize=12;size=0.23;fontSize=10;" parent="1" vertex="1">
          <mxGeometry x="549.5" y="965" width="142" height="70" as="geometry" />
        </mxCell>
        <mxCell id="_uFk6j54CqaUpoAv_oYZ-34" style="edgeStyle=orthogonalEdgeStyle;rounded=0;orthogonalLoop=1;jettySize=auto;html=1;entryX=0.5;entryY=0;entryDx=0;entryDy=0;entryPerimeter=0;endArrow=none;endFill=0;" parent="1" source="_uFk6j54CqaUpoAv_oYZ-8" target="_uFk6j54CqaUpoAv_oYZ-10" edge="1">
          <mxGeometry relative="1" as="geometry" />
        </mxCell>
        <mxCell id="_uFk6j54CqaUpoAv_oYZ-38" value="" style="edgeStyle=orthogonalEdgeStyle;rounded=0;orthogonalLoop=1;jettySize=auto;html=1;endArrow=none;endFill=0;" parent="1" source="_uFk6j54CqaUpoAv_oYZ-24" target="_uFk6j54CqaUpoAv_oYZ-14" edge="1">
          <mxGeometry relative="1" as="geometry" />
        </mxCell>
        <mxCell id="_uFk6j54CqaUpoAv_oYZ-43" style="edgeStyle=orthogonalEdgeStyle;rounded=0;orthogonalLoop=1;jettySize=auto;html=1;entryX=0.5;entryY=0;entryDx=0;entryDy=0;endArrow=none;endFill=0;" parent="1" source="_uFk6j54CqaUpoAv_oYZ-28" target="_uFk6j54CqaUpoAv_oYZ-19" edge="1">
          <mxGeometry relative="1" as="geometry" />
        </mxCell>
        <mxCell id="_uFk6j54CqaUpoAv_oYZ-44" style="edgeStyle=orthogonalEdgeStyle;rounded=0;orthogonalLoop=1;jettySize=auto;html=1;entryX=0.5;entryY=0;entryDx=0;entryDy=0;endArrow=none;endFill=0;" parent="1" source="_uFk6j54CqaUpoAv_oYZ-19" target="_uFk6j54CqaUpoAv_oYZ-31" edge="1">
          <mxGeometry relative="1" as="geometry" />
        </mxCell>
        <mxCell id="_uFk6j54CqaUpoAv_oYZ-45" style="edgeStyle=orthogonalEdgeStyle;rounded=0;orthogonalLoop=1;jettySize=auto;html=1;entryX=0.5;entryY=0;entryDx=0;entryDy=0;entryPerimeter=0;endArrow=none;endFill=0;" parent="1" source="_uFk6j54CqaUpoAv_oYZ-31" target="_uFk6j54CqaUpoAv_oYZ-2" edge="1">
          <mxGeometry relative="1" as="geometry">
            <Array as="points">
              <mxPoint x="621" y="1061" />
              <mxPoint x="110" y="1061" />
            </Array>
          </mxGeometry>
        </mxCell>
        <mxCell id="_uFk6j54CqaUpoAv_oYZ-46" value="сообщение об ошибке" style="shape=parallelogram;html=1;strokeWidth=2;perimeter=parallelogramPerimeter;whiteSpace=wrap;rounded=0;arcSize=12;size=0.23;fontSize=10;" parent="1" vertex="1">
          <mxGeometry x="60" y="263" width="100" height="50" as="geometry" />
        </mxCell>
        <mxCell id="_uFk6j54CqaUpoAv_oYZ-47" value="сообщение об ошибке" style="shape=parallelogram;html=1;strokeWidth=2;perimeter=parallelogramPerimeter;whiteSpace=wrap;rounded=0;arcSize=12;size=0.23;fontSize=10;" parent="1" vertex="1">
          <mxGeometry x="176" y="444.5" width="100" height="50" as="geometry" />
        </mxCell>
        <mxCell id="_uFk6j54CqaUpoAv_oYZ-48" value="сообщение об ошибке" style="shape=parallelogram;html=1;strokeWidth=2;perimeter=parallelogramPerimeter;whiteSpace=wrap;rounded=0;arcSize=12;size=0.23;fontSize=10;" parent="1" vertex="1">
          <mxGeometry x="297.5" y="606" width="100" height="50" as="geometry" />
        </mxCell>
        <mxCell id="_uFk6j54CqaUpoAv_oYZ-49" value="сообщение об ошибке" style="shape=parallelogram;html=1;strokeWidth=2;perimeter=parallelogramPerimeter;whiteSpace=wrap;rounded=0;arcSize=12;size=0.23;fontSize=10;" parent="1" vertex="1">
          <mxGeometry x="447.5" y="776.5" width="100" height="50" as="geometry" />
        </mxCell>
        <mxCell id="_uFk6j54CqaUpoAv_oYZ-51" style="edgeStyle=orthogonalEdgeStyle;rounded=0;orthogonalLoop=1;jettySize=auto;html=1;entryX=0.5;entryY=0;entryDx=0;entryDy=0;entryPerimeter=0;endArrow=none;endFill=0;" parent="1" source="_uFk6j54CqaUpoAv_oYZ-46" target="_uFk6j54CqaUpoAv_oYZ-2" edge="1">
          <mxGeometry relative="1" as="geometry" />
        </mxCell>
        <mxCell id="_uFk6j54CqaUpoAv_oYZ-53" style="edgeStyle=orthogonalEdgeStyle;rounded=0;orthogonalLoop=1;jettySize=auto;html=1;entryX=0.5;entryY=0;entryDx=0;entryDy=0;entryPerimeter=0;endArrow=none;endFill=0;" parent="1" source="_uFk6j54CqaUpoAv_oYZ-47" target="_uFk6j54CqaUpoAv_oYZ-2" edge="1">
          <mxGeometry relative="1" as="geometry">
            <Array as="points">
              <mxPoint x="226" y="1061" />
              <mxPoint x="110" y="1061" />
            </Array>
          </mxGeometry>
        </mxCell>
        <mxCell id="_uFk6j54CqaUpoAv_oYZ-55" style="edgeStyle=orthogonalEdgeStyle;rounded=0;orthogonalLoop=1;jettySize=auto;html=1;entryX=0.5;entryY=0;entryDx=0;entryDy=0;entryPerimeter=0;endArrow=none;endFill=0;" parent="1" source="_uFk6j54CqaUpoAv_oYZ-48" target="_uFk6j54CqaUpoAv_oYZ-2" edge="1">
          <mxGeometry relative="1" as="geometry">
            <Array as="points">
              <mxPoint x="347" y="1061" />
              <mxPoint x="110" y="1061" />
            </Array>
          </mxGeometry>
        </mxCell>
        <mxCell id="_uFk6j54CqaUpoAv_oYZ-57" style="edgeStyle=orthogonalEdgeStyle;rounded=0;orthogonalLoop=1;jettySize=auto;html=1;entryX=0.5;entryY=0;entryDx=0;entryDy=0;entryPerimeter=0;endArrow=none;endFill=0;" parent="1" source="_uFk6j54CqaUpoAv_oYZ-49" target="_uFk6j54CqaUpoAv_oYZ-2" edge="1">
          <mxGeometry relative="1" as="geometry">
            <Array as="points">
              <mxPoint x="498" y="1061" />
              <mxPoint x="110" y="1061" />
            </Array>
          </mxGeometry>
        </mxCell>
      </root>
    </mxGraphModel>
  </diagram>
  <diagram id="mIdni1XyAdZqkRiuXTay" name="A1">
    <mxGraphModel dx="1235" dy="787" grid="0" gridSize="10" guides="1" tooltips="1" connect="1" arrows="1" fold="1" page="1" pageScale="1" pageWidth="827" pageHeight="1169" math="0" shadow="0">
      <root>
        <mxCell id="0" />
        <mxCell id="1" parent="0" />
        <mxCell id="7CGWzOS8e9SNzslFvj2U-3" value="" style="edgeStyle=orthogonalEdgeStyle;rounded=0;orthogonalLoop=1;jettySize=auto;html=1;endArrow=none;endFill=0;" edge="1" parent="1" source="XyB_A4Ox5DH4qlvIoUxo-1" target="XyB_A4Ox5DH4qlvIoUxo-4">
          <mxGeometry relative="1" as="geometry" />
        </mxCell>
        <mxCell id="XyB_A4Ox5DH4qlvIoUxo-1" value="Начало А1" style="strokeWidth=2;html=1;shape=mxgraph.flowchart.terminator;whiteSpace=wrap;fontSize=10;" vertex="1" parent="1">
          <mxGeometry x="84" y="31" width="100" height="50" as="geometry" />
        </mxCell>
        <mxCell id="XyB_A4Ox5DH4qlvIoUxo-3" value="Конец А1" style="strokeWidth=2;html=1;shape=mxgraph.flowchart.terminator;whiteSpace=wrap;fontSize=10;" vertex="1" parent="1">
          <mxGeometry x="84" y="548" width="100" height="50" as="geometry" />
        </mxCell>
        <mxCell id="XyB_A4Ox5DH4qlvIoUxo-4" value="Как вводится &lt;br&gt;текст?&lt;br&gt;файл / клавиатура" style="shape=parallelogram;html=1;strokeWidth=2;perimeter=parallelogramPerimeter;whiteSpace=wrap;rounded=0;arcSize=12;size=0.23;fontSize=10;" vertex="1" parent="1">
          <mxGeometry x="59" y="130" width="150" height="75" as="geometry" />
        </mxCell>
        <mxCell id="7CGWzOS8e9SNzslFvj2U-1" value="ответ получен?" style="strokeWidth=2;html=1;shape=mxgraph.flowchart.decision;whiteSpace=wrap;fontSize=10;" vertex="1" parent="1">
          <mxGeometry x="84" y="229" width="100" height="50" as="geometry" />
        </mxCell>
        <mxCell id="7CGWzOS8e9SNzslFvj2U-6" style="edgeStyle=orthogonalEdgeStyle;rounded=0;orthogonalLoop=1;jettySize=auto;html=1;entryX=0.5;entryY=0;entryDx=0;entryDy=0;entryPerimeter=0;endArrow=none;endFill=0;" edge="1" parent="1" source="XyB_A4Ox5DH4qlvIoUxo-4" target="7CGWzOS8e9SNzslFvj2U-1">
          <mxGeometry relative="1" as="geometry" />
        </mxCell>
        <mxCell id="7CGWzOS8e9SNzslFvj2U-9" style="edgeStyle=orthogonalEdgeStyle;rounded=0;orthogonalLoop=1;jettySize=auto;html=1;exitX=1;exitY=0.5;exitDx=0;exitDy=0;exitPerimeter=0;" edge="1" parent="1" source="7CGWzOS8e9SNzslFvj2U-1">
          <mxGeometry relative="1" as="geometry">
            <mxPoint x="134" y="103" as="targetPoint" />
            <Array as="points">
              <mxPoint x="316" y="254" />
              <mxPoint x="316" y="103" />
            </Array>
          </mxGeometry>
        </mxCell>
        <mxCell id="7CGWzOS8e9SNzslFvj2U-12" value="&amp;nbsp;нет&amp;nbsp;" style="edgeLabel;html=1;align=center;verticalAlign=middle;resizable=0;points=[];" vertex="1" connectable="0" parent="7CGWzOS8e9SNzslFvj2U-9">
          <mxGeometry x="-0.7425" relative="1" as="geometry">
            <mxPoint as="offset" />
          </mxGeometry>
        </mxCell>
        <mxCell id="s2WdCQgpJdPRsYyxwnVU-4" style="edgeStyle=orthogonalEdgeStyle;rounded=0;orthogonalLoop=1;jettySize=auto;html=1;entryX=0.5;entryY=0;entryDx=0;entryDy=0;endArrow=none;endFill=0;" edge="1" parent="1" source="7CGWzOS8e9SNzslFvj2U-14" target="s2WdCQgpJdPRsYyxwnVU-3">
          <mxGeometry relative="1" as="geometry" />
        </mxCell>
        <mxCell id="s2WdCQgpJdPRsYyxwnVU-12" value="&amp;nbsp;да&amp;nbsp;" style="edgeLabel;html=1;align=center;verticalAlign=middle;resizable=0;points=[];" vertex="1" connectable="0" parent="s2WdCQgpJdPRsYyxwnVU-4">
          <mxGeometry x="-0.5545" y="2" relative="1" as="geometry">
            <mxPoint y="2" as="offset" />
          </mxGeometry>
        </mxCell>
        <mxCell id="s2WdCQgpJdPRsYyxwnVU-9" style="edgeStyle=orthogonalEdgeStyle;rounded=0;orthogonalLoop=1;jettySize=auto;html=1;entryX=0.5;entryY=0;entryDx=0;entryDy=0;endArrow=none;endFill=0;" edge="1" parent="1" source="7CGWzOS8e9SNzslFvj2U-14" target="s2WdCQgpJdPRsYyxwnVU-7">
          <mxGeometry relative="1" as="geometry" />
        </mxCell>
        <mxCell id="7CGWzOS8e9SNzslFvj2U-14" value="ввод через &lt;br&gt;файл?" style="strokeWidth=2;html=1;shape=mxgraph.flowchart.decision;whiteSpace=wrap;fontSize=10;" vertex="1" parent="1">
          <mxGeometry x="84" y="302" width="100" height="50" as="geometry" />
        </mxCell>
        <mxCell id="s2WdCQgpJdPRsYyxwnVU-1" value="" style="group" vertex="1" connectable="0" parent="1">
          <mxGeometry x="264" y="396" width="90" height="55" as="geometry" />
        </mxCell>
        <mxCell id="s2WdCQgpJdPRsYyxwnVU-2" value="&lt;font style=&quot;font-size: 10px;&quot;&gt;ввод через файл&lt;/font&gt;" style="rounded=0;whiteSpace=wrap;html=1;absoluteArcSize=1;arcSize=14;strokeWidth=2;" vertex="1" parent="s2WdCQgpJdPRsYyxwnVU-1">
          <mxGeometry y="12.692307692307692" width="90" height="55" as="geometry" />
        </mxCell>
        <mxCell id="s2WdCQgpJdPRsYyxwnVU-3" value="&lt;span style=&quot;font-size: 10px;&quot;&gt;А3&lt;/span&gt;" style="rounded=0;whiteSpace=wrap;html=1;absoluteArcSize=1;arcSize=14;strokeWidth=2;" vertex="1" parent="s2WdCQgpJdPRsYyxwnVU-1">
          <mxGeometry width="90" height="12.692307692307692" as="geometry" />
        </mxCell>
        <mxCell id="s2WdCQgpJdPRsYyxwnVU-5" value="" style="group" vertex="1" connectable="0" parent="1">
          <mxGeometry x="89" y="396" width="90" height="55" as="geometry" />
        </mxCell>
        <mxCell id="s2WdCQgpJdPRsYyxwnVU-6" value="&lt;font style=&quot;font-size: 10px;&quot;&gt;ввод с клавиатуры&lt;/font&gt;" style="rounded=0;whiteSpace=wrap;html=1;absoluteArcSize=1;arcSize=14;strokeWidth=2;" vertex="1" parent="s2WdCQgpJdPRsYyxwnVU-5">
          <mxGeometry y="12.692307692307692" width="90" height="55" as="geometry" />
        </mxCell>
        <mxCell id="s2WdCQgpJdPRsYyxwnVU-7" value="&lt;font style=&quot;font-size: 10px;&quot;&gt;А2&lt;/font&gt;" style="rounded=0;whiteSpace=wrap;html=1;absoluteArcSize=1;arcSize=14;strokeWidth=2;" vertex="1" parent="s2WdCQgpJdPRsYyxwnVU-5">
          <mxGeometry width="90" height="12.692307692307692" as="geometry" />
        </mxCell>
        <mxCell id="s2WdCQgpJdPRsYyxwnVU-10" value="" style="edgeStyle=orthogonalEdgeStyle;rounded=0;orthogonalLoop=1;jettySize=auto;html=1;endArrow=none;endFill=0;" edge="1" parent="1" source="s2WdCQgpJdPRsYyxwnVU-6" target="XyB_A4Ox5DH4qlvIoUxo-3">
          <mxGeometry relative="1" as="geometry" />
        </mxCell>
        <mxCell id="s2WdCQgpJdPRsYyxwnVU-11" style="edgeStyle=orthogonalEdgeStyle;rounded=0;orthogonalLoop=1;jettySize=auto;html=1;entryX=0.5;entryY=0;entryDx=0;entryDy=0;entryPerimeter=0;endArrow=none;endFill=0;exitX=0.5;exitY=1;exitDx=0;exitDy=0;" edge="1" parent="1" source="s2WdCQgpJdPRsYyxwnVU-2" target="XyB_A4Ox5DH4qlvIoUxo-3">
          <mxGeometry relative="1" as="geometry">
            <Array as="points">
              <mxPoint x="309" y="511" />
              <mxPoint x="134" y="511" />
            </Array>
          </mxGeometry>
        </mxCell>
        <mxCell id="p8KRBZreMNFZI89pFtbv-1" style="edgeStyle=orthogonalEdgeStyle;rounded=0;orthogonalLoop=1;jettySize=auto;html=1;entryX=0.5;entryY=0;entryDx=0;entryDy=0;entryPerimeter=0;endArrow=none;endFill=0;" edge="1" parent="1" source="7CGWzOS8e9SNzslFvj2U-1" target="7CGWzOS8e9SNzslFvj2U-14">
          <mxGeometry relative="1" as="geometry" />
        </mxCell>
      </root>
    </mxGraphModel>
  </diagram>
  <diagram id="3PaKkLZzmJDLHgydvVlA" name="A2">
    <mxGraphModel dx="1167" dy="743" grid="0" gridSize="10" guides="1" tooltips="1" connect="1" arrows="1" fold="1" page="1" pageScale="1" pageWidth="827" pageHeight="1169" math="0" shadow="0">
      <root>
        <mxCell id="0" />
        <mxCell id="1" parent="0" />
        <mxCell id="ruq472iORZkMGY7jHE1E-4" value="" style="edgeStyle=orthogonalEdgeStyle;rounded=0;orthogonalLoop=1;jettySize=auto;html=1;endArrow=none;endFill=0;" parent="1" source="Vbr3nSADRB7Q40GI7J-2-2" target="Vbr3nSADRB7Q40GI7J-2-4" edge="1">
          <mxGeometry relative="1" as="geometry" />
        </mxCell>
        <mxCell id="Vbr3nSADRB7Q40GI7J-2-2" value="Начало А2" style="strokeWidth=2;html=1;shape=mxgraph.flowchart.terminator;whiteSpace=wrap;fontSize=10;" parent="1" vertex="1">
          <mxGeometry x="61" y="31" width="96" height="50" as="geometry" />
        </mxCell>
        <mxCell id="Vbr3nSADRB7Q40GI7J-2-3" value="Конец А2" style="strokeWidth=2;html=1;shape=mxgraph.flowchart.terminator;whiteSpace=wrap;fontSize=10;" parent="1" vertex="1">
          <mxGeometry x="61" y="1112" width="96" height="50" as="geometry" />
        </mxCell>
        <mxCell id="ruq472iORZkMGY7jHE1E-5" style="edgeStyle=orthogonalEdgeStyle;rounded=0;orthogonalLoop=1;jettySize=auto;html=1;entryX=0.5;entryY=0;entryDx=0;entryDy=0;endArrow=none;endFill=0;" parent="1" source="Vbr3nSADRB7Q40GI7J-2-4" target="Vbr3nSADRB7Q40GI7J-2-6" edge="1">
          <mxGeometry relative="1" as="geometry" />
        </mxCell>
        <mxCell id="ruq472iORZkMGY7jHE1E-57" value="&amp;nbsp;да&amp;nbsp;" style="edgeLabel;html=1;align=center;verticalAlign=middle;resizable=0;points=[];" parent="ruq472iORZkMGY7jHE1E-5" vertex="1" connectable="0">
          <mxGeometry x="-0.3228" y="-1" relative="1" as="geometry">
            <mxPoint as="offset" />
          </mxGeometry>
        </mxCell>
        <mxCell id="Vbr3nSADRB7Q40GI7J-2-4" value="ввод возможен?" style="strokeWidth=2;html=1;shape=mxgraph.flowchart.decision;whiteSpace=wrap;fontSize=10;" parent="1" vertex="1">
          <mxGeometry x="32" y="115" width="154" height="77" as="geometry" />
        </mxCell>
        <mxCell id="ruq472iORZkMGY7jHE1E-6" value="" style="edgeStyle=orthogonalEdgeStyle;rounded=0;orthogonalLoop=1;jettySize=auto;html=1;endArrow=none;endFill=0;" parent="1" source="Vbr3nSADRB7Q40GI7J-2-6" target="Vbr3nSADRB7Q40GI7J-2-7" edge="1">
          <mxGeometry relative="1" as="geometry" />
        </mxCell>
        <mxCell id="Vbr3nSADRB7Q40GI7J-2-6" value="ввод строки" style="shape=parallelogram;html=1;strokeWidth=2;perimeter=parallelogramPerimeter;whiteSpace=wrap;rounded=0;arcSize=12;size=0.23;fontSize=10;" parent="1" vertex="1">
          <mxGeometry x="220" y="184" width="96" height="50" as="geometry" />
        </mxCell>
        <mxCell id="ruq472iORZkMGY7jHE1E-7" style="edgeStyle=orthogonalEdgeStyle;rounded=0;orthogonalLoop=1;jettySize=auto;html=1;entryX=0.5;entryY=0;entryDx=0;entryDy=0;endArrow=none;endFill=0;" parent="1" source="Vbr3nSADRB7Q40GI7J-2-7" target="ruq472iORZkMGY7jHE1E-1" edge="1">
          <mxGeometry relative="1" as="geometry" />
        </mxCell>
        <mxCell id="ruq472iORZkMGY7jHE1E-9" value="&amp;nbsp;нет&amp;nbsp;" style="edgeLabel;html=1;align=center;verticalAlign=middle;resizable=0;points=[];" parent="ruq472iORZkMGY7jHE1E-7" vertex="1" connectable="0">
          <mxGeometry x="-0.379" y="-2" relative="1" as="geometry">
            <mxPoint x="-10" y="-2" as="offset" />
          </mxGeometry>
        </mxCell>
        <mxCell id="Vbr3nSADRB7Q40GI7J-2-7" value="ввод удался?" style="strokeWidth=2;html=1;shape=mxgraph.flowchart.decision;whiteSpace=wrap;fontSize=10;" parent="1" vertex="1">
          <mxGeometry x="191" y="254" width="154" height="77" as="geometry" />
        </mxCell>
        <mxCell id="ruq472iORZkMGY7jHE1E-12" style="edgeStyle=orthogonalEdgeStyle;rounded=0;orthogonalLoop=1;jettySize=auto;html=1;entryX=0.5;entryY=0;entryDx=0;entryDy=0;endArrow=none;endFill=0;" parent="1" source="Vbr3nSADRB7Q40GI7J-2-8" target="Vbr3nSADRB7Q40GI7J-2-9" edge="1">
          <mxGeometry relative="1" as="geometry" />
        </mxCell>
        <mxCell id="ruq472iORZkMGY7jHE1E-22" value="&amp;nbsp;да&amp;nbsp;" style="edgeLabel;html=1;align=center;verticalAlign=middle;resizable=0;points=[];" parent="ruq472iORZkMGY7jHE1E-12" vertex="1" connectable="0">
          <mxGeometry x="-0.3759" relative="1" as="geometry">
            <mxPoint as="offset" />
          </mxGeometry>
        </mxCell>
        <mxCell id="Vbr3nSADRB7Q40GI7J-2-8" value="строка пустая&amp;nbsp;&lt;br&gt;и&lt;br&gt;ввод возможен?" style="strokeWidth=2;html=1;shape=mxgraph.flowchart.decision;whiteSpace=wrap;fontSize=10;" parent="1" vertex="1">
          <mxGeometry x="191" y="505" width="154" height="77" as="geometry" />
        </mxCell>
        <mxCell id="Vbr3nSADRB7Q40GI7J-2-9" value="&lt;font style=&quot;font-size: 10px;&quot;&gt;inputFlag = 0;&lt;/font&gt;" style="rounded=0;whiteSpace=wrap;html=1;absoluteArcSize=1;arcSize=14;strokeWidth=2;" parent="1" vertex="1">
          <mxGeometry x="366.5" y="563" width="100" height="50" as="geometry" />
        </mxCell>
        <mxCell id="ruq472iORZkMGY7jHE1E-55" style="edgeStyle=orthogonalEdgeStyle;rounded=0;orthogonalLoop=1;jettySize=auto;html=1;entryX=0.5;entryY=0;entryDx=0;entryDy=0;endArrow=none;endFill=0;exitX=1;exitY=0.5;exitDx=0;exitDy=0;exitPerimeter=0;" parent="1" source="DsNNpKcJ6GkGedX_R0ip-2" target="ruq472iORZkMGY7jHE1E-3" edge="1">
          <mxGeometry relative="1" as="geometry">
            <mxPoint x="363" y="704" as="sourcePoint" />
          </mxGeometry>
        </mxCell>
        <mxCell id="hAE-Siy_h_Bi_T5rx7DY-1" value="&amp;nbsp;да&amp;nbsp;" style="edgeLabel;html=1;align=center;verticalAlign=middle;resizable=0;points=[];" parent="ruq472iORZkMGY7jHE1E-55" vertex="1" connectable="0">
          <mxGeometry x="-0.4303" relative="1" as="geometry">
            <mxPoint x="-2" as="offset" />
          </mxGeometry>
        </mxCell>
        <mxCell id="ruq472iORZkMGY7jHE1E-27" style="edgeStyle=orthogonalEdgeStyle;rounded=0;orthogonalLoop=1;jettySize=auto;html=1;entryX=0.5;entryY=0;entryDx=0;entryDy=0;endArrow=none;endFill=0;" parent="1" source="Vbr3nSADRB7Q40GI7J-2-12" target="ruq472iORZkMGY7jHE1E-26" edge="1">
          <mxGeometry relative="1" as="geometry" />
        </mxCell>
        <mxCell id="hAE-Siy_h_Bi_T5rx7DY-2" value="&amp;nbsp;да&amp;nbsp;" style="edgeLabel;html=1;align=center;verticalAlign=middle;resizable=0;points=[];" parent="ruq472iORZkMGY7jHE1E-27" vertex="1" connectable="0">
          <mxGeometry x="-0.4471" relative="1" as="geometry">
            <mxPoint as="offset" />
          </mxGeometry>
        </mxCell>
        <mxCell id="Vbr3nSADRB7Q40GI7J-2-12" value="ввод возможен?" style="strokeWidth=2;html=1;shape=mxgraph.flowchart.decision;whiteSpace=wrap;fontSize=10;" parent="1" vertex="1">
          <mxGeometry x="192" y="917" width="152" height="76" as="geometry" />
        </mxCell>
        <mxCell id="XOCwOSwcw7BKIFe51ieV-1" value="сообщение об ошибке" style="shape=parallelogram;html=1;strokeWidth=2;perimeter=parallelogramPerimeter;whiteSpace=wrap;rounded=0;arcSize=12;size=0.23;fontSize=10;" parent="1" vertex="1">
          <mxGeometry x="366.5" y="414" width="100" height="50" as="geometry" />
        </mxCell>
        <mxCell id="ruq472iORZkMGY7jHE1E-10" value="" style="edgeStyle=orthogonalEdgeStyle;rounded=0;orthogonalLoop=1;jettySize=auto;html=1;endArrow=none;endFill=0;" parent="1" source="ruq472iORZkMGY7jHE1E-1" target="XOCwOSwcw7BKIFe51ieV-1" edge="1">
          <mxGeometry relative="1" as="geometry" />
        </mxCell>
        <mxCell id="ruq472iORZkMGY7jHE1E-1" value="&lt;font style=&quot;font-size: 10px;&quot;&gt;globalErrorFlag = 1;&lt;/font&gt;" style="rounded=0;whiteSpace=wrap;html=1;absoluteArcSize=1;arcSize=14;strokeWidth=2;" parent="1" vertex="1">
          <mxGeometry x="366.5" y="344" width="100" height="50" as="geometry" />
        </mxCell>
        <mxCell id="ruq472iORZkMGY7jHE1E-2" value="сообщение об ошибке" style="shape=parallelogram;html=1;strokeWidth=2;perimeter=parallelogramPerimeter;whiteSpace=wrap;rounded=0;arcSize=12;size=0.23;fontSize=10;" parent="1" vertex="1">
          <mxGeometry x="366.5" y="814" width="100" height="50" as="geometry" />
        </mxCell>
        <mxCell id="ruq472iORZkMGY7jHE1E-25" style="edgeStyle=orthogonalEdgeStyle;rounded=0;orthogonalLoop=1;jettySize=auto;html=1;entryX=0.5;entryY=0;entryDx=0;entryDy=0;endArrow=none;endFill=0;" parent="1" source="ruq472iORZkMGY7jHE1E-3" target="ruq472iORZkMGY7jHE1E-2" edge="1">
          <mxGeometry relative="1" as="geometry" />
        </mxCell>
        <mxCell id="ruq472iORZkMGY7jHE1E-3" value="&lt;font style=&quot;font-size: 10px;&quot;&gt;globalErrorFlag = 1;&lt;/font&gt;" style="rounded=0;whiteSpace=wrap;html=1;absoluteArcSize=1;arcSize=14;strokeWidth=2;" parent="1" vertex="1">
          <mxGeometry x="366.5" y="742" width="100" height="50" as="geometry" />
        </mxCell>
        <mxCell id="ruq472iORZkMGY7jHE1E-8" style="edgeStyle=orthogonalEdgeStyle;rounded=0;orthogonalLoop=1;jettySize=auto;html=1;entryX=0.5;entryY=0;entryDx=0;entryDy=0;entryPerimeter=0;endArrow=none;endFill=0;" parent="1" source="Vbr3nSADRB7Q40GI7J-2-7" target="Vbr3nSADRB7Q40GI7J-2-8" edge="1">
          <mxGeometry relative="1" as="geometry" />
        </mxCell>
        <mxCell id="ruq472iORZkMGY7jHE1E-20" style="edgeStyle=orthogonalEdgeStyle;rounded=0;orthogonalLoop=1;jettySize=auto;html=1;entryX=0.5;entryY=0;entryDx=0;entryDy=0;entryPerimeter=0;endArrow=none;endFill=0;" parent="1" source="ruq472iORZkMGY7jHE1E-2" target="Vbr3nSADRB7Q40GI7J-2-12" edge="1">
          <mxGeometry relative="1" as="geometry">
            <Array as="points">
              <mxPoint x="417" y="894" />
              <mxPoint x="268" y="894" />
            </Array>
          </mxGeometry>
        </mxCell>
        <mxCell id="ruq472iORZkMGY7jHE1E-21" style="edgeStyle=orthogonalEdgeStyle;rounded=0;orthogonalLoop=1;jettySize=auto;html=1;entryX=0.5;entryY=0;entryDx=0;entryDy=0;entryPerimeter=0;endArrow=none;endFill=0;" parent="1" source="XOCwOSwcw7BKIFe51ieV-1" target="Vbr3nSADRB7Q40GI7J-2-8" edge="1">
          <mxGeometry relative="1" as="geometry">
            <Array as="points">
              <mxPoint x="416" y="488" />
              <mxPoint x="268" y="488" />
            </Array>
          </mxGeometry>
        </mxCell>
        <mxCell id="ruq472iORZkMGY7jHE1E-30" style="edgeStyle=orthogonalEdgeStyle;rounded=0;orthogonalLoop=1;jettySize=auto;html=1;endArrow=none;endFill=0;" parent="1" source="ruq472iORZkMGY7jHE1E-26" edge="1">
          <mxGeometry relative="1" as="geometry">
            <mxPoint x="416" y="1077" as="targetPoint" />
          </mxGeometry>
        </mxCell>
        <mxCell id="ruq472iORZkMGY7jHE1E-26" value="&lt;span style=&quot;font-size: 10px;&quot;&gt;запись текста&lt;/span&gt;" style="rounded=0;whiteSpace=wrap;html=1;absoluteArcSize=1;arcSize=14;strokeWidth=2;" parent="1" vertex="1">
          <mxGeometry x="366.5" y="996" width="100" height="50" as="geometry" />
        </mxCell>
        <mxCell id="ruq472iORZkMGY7jHE1E-29" style="edgeStyle=orthogonalEdgeStyle;rounded=0;orthogonalLoop=1;jettySize=auto;html=1;" parent="1" source="Vbr3nSADRB7Q40GI7J-2-12" edge="1">
          <mxGeometry relative="1" as="geometry">
            <mxPoint x="109" y="99" as="targetPoint" />
            <Array as="points">
              <mxPoint x="268" y="1077" />
              <mxPoint x="625" y="1077" />
              <mxPoint x="625" y="99" />
            </Array>
          </mxGeometry>
        </mxCell>
        <mxCell id="ruq472iORZkMGY7jHE1E-50" style="edgeStyle=orthogonalEdgeStyle;rounded=0;orthogonalLoop=1;jettySize=auto;html=1;entryX=0.5;entryY=0;entryDx=0;entryDy=0;entryPerimeter=0;endArrow=none;endFill=0;" parent="1" source="Vbr3nSADRB7Q40GI7J-2-4" target="Vbr3nSADRB7Q40GI7J-2-3" edge="1">
          <mxGeometry relative="1" as="geometry" />
        </mxCell>
        <mxCell id="ruq472iORZkMGY7jHE1E-53" style="edgeStyle=orthogonalEdgeStyle;rounded=0;orthogonalLoop=1;jettySize=auto;html=1;entryX=0.5;entryY=0;entryDx=0;entryDy=0;entryPerimeter=0;endArrow=none;endFill=0;" parent="1" source="Vbr3nSADRB7Q40GI7J-2-8" target="DsNNpKcJ6GkGedX_R0ip-2" edge="1">
          <mxGeometry relative="1" as="geometry">
            <mxPoint x="268" y="653" as="targetPoint" />
          </mxGeometry>
        </mxCell>
        <mxCell id="ruq472iORZkMGY7jHE1E-54" style="edgeStyle=orthogonalEdgeStyle;rounded=0;orthogonalLoop=1;jettySize=auto;html=1;entryX=0.5;entryY=0;entryDx=0;entryDy=0;entryPerimeter=0;endArrow=none;endFill=0;" parent="1" source="Vbr3nSADRB7Q40GI7J-2-9" target="DsNNpKcJ6GkGedX_R0ip-2" edge="1">
          <mxGeometry relative="1" as="geometry">
            <Array as="points">
              <mxPoint x="417" y="636" />
              <mxPoint x="268" y="636" />
            </Array>
            <mxPoint x="268" y="653" as="targetPoint" />
          </mxGeometry>
        </mxCell>
        <mxCell id="ruq472iORZkMGY7jHE1E-56" style="edgeStyle=orthogonalEdgeStyle;rounded=0;orthogonalLoop=1;jettySize=auto;html=1;entryX=0.5;entryY=0;entryDx=0;entryDy=0;entryPerimeter=0;endArrow=none;endFill=0;exitX=0.5;exitY=1;exitDx=0;exitDy=0;exitPerimeter=0;" parent="1" source="DsNNpKcJ6GkGedX_R0ip-2" target="Vbr3nSADRB7Q40GI7J-2-12" edge="1">
          <mxGeometry relative="1" as="geometry">
            <mxPoint x="268" y="755" as="sourcePoint" />
          </mxGeometry>
        </mxCell>
        <mxCell id="DsNNpKcJ6GkGedX_R0ip-2" value="строка привысила &lt;br&gt;лимит памяти&amp;nbsp; и&lt;br&gt;ввод возможен?" style="strokeWidth=2;html=1;shape=mxgraph.flowchart.decision;whiteSpace=wrap;fontSize=10;" parent="1" vertex="1">
          <mxGeometry x="191" y="665" width="154" height="77" as="geometry" />
        </mxCell>
      </root>
    </mxGraphModel>
  </diagram>
  <diagram id="1-Qo1MS6viQ6bwIYzBUj" name="А3">
    <mxGraphModel dx="1313" dy="836" grid="0" gridSize="10" guides="1" tooltips="1" connect="1" arrows="1" fold="1" page="1" pageScale="1" pageWidth="827" pageHeight="1169" math="0" shadow="0">
      <root>
        <mxCell id="0" />
        <mxCell id="1" parent="0" />
        <mxCell id="skBIMLDtU99hLIkvM2LE-5" value="" style="edgeStyle=orthogonalEdgeStyle;rounded=0;orthogonalLoop=1;jettySize=auto;html=1;endArrow=none;endFill=0;" edge="1" parent="1" source="xTgatZesqlkthAEV7MEO-1" target="xTgatZesqlkthAEV7MEO-3">
          <mxGeometry relative="1" as="geometry" />
        </mxCell>
        <mxCell id="xTgatZesqlkthAEV7MEO-1" value="Начало А3" style="strokeWidth=2;html=1;shape=mxgraph.flowchart.terminator;whiteSpace=wrap;fontSize=10;" vertex="1" parent="1">
          <mxGeometry x="85" y="29" width="100" height="50" as="geometry" />
        </mxCell>
        <mxCell id="skBIMLDtU99hLIkvM2LE-7" style="edgeStyle=orthogonalEdgeStyle;rounded=0;orthogonalLoop=1;jettySize=auto;html=1;entryX=0.5;entryY=0;entryDx=0;entryDy=0;endArrow=none;endFill=0;" edge="1" parent="1" source="xTgatZesqlkthAEV7MEO-3" target="xTgatZesqlkthAEV7MEO-4">
          <mxGeometry relative="1" as="geometry" />
        </mxCell>
        <mxCell id="xTgatZesqlkthAEV7MEO-3" value="Введите имя &lt;br&gt;файла" style="shape=parallelogram;html=1;strokeWidth=2;perimeter=parallelogramPerimeter;whiteSpace=wrap;rounded=0;arcSize=12;size=0.23;fontSize=10;" vertex="1" parent="1">
          <mxGeometry x="85" y="105" width="100" height="50" as="geometry" />
        </mxCell>
        <mxCell id="skBIMLDtU99hLIkvM2LE-9" style="edgeStyle=orthogonalEdgeStyle;rounded=0;orthogonalLoop=1;jettySize=auto;html=1;entryX=0.5;entryY=0;entryDx=0;entryDy=0;endArrow=none;endFill=0;" edge="1" parent="1" source="xTgatZesqlkthAEV7MEO-4" target="xTgatZesqlkthAEV7MEO-5">
          <mxGeometry relative="1" as="geometry" />
        </mxCell>
        <mxCell id="xTgatZesqlkthAEV7MEO-4" value="имя файла" style="shape=parallelogram;html=1;strokeWidth=2;perimeter=parallelogramPerimeter;whiteSpace=wrap;rounded=0;arcSize=12;size=0.23;fontSize=10;" vertex="1" parent="1">
          <mxGeometry x="85" y="181" width="100" height="50" as="geometry" />
        </mxCell>
        <mxCell id="skBIMLDtU99hLIkvM2LE-10" value="" style="edgeStyle=orthogonalEdgeStyle;rounded=0;orthogonalLoop=1;jettySize=auto;html=1;endArrow=none;endFill=0;" edge="1" parent="1" source="xTgatZesqlkthAEV7MEO-5" target="xTgatZesqlkthAEV7MEO-6">
          <mxGeometry relative="1" as="geometry" />
        </mxCell>
        <mxCell id="xTgatZesqlkthAEV7MEO-5" value="&lt;font style=&quot;font-size: 10px;&quot;&gt;открытие файла&lt;/font&gt;" style="rounded=0;whiteSpace=wrap;html=1;absoluteArcSize=1;arcSize=14;strokeWidth=2;" vertex="1" parent="1">
          <mxGeometry x="97.5" y="258" width="75" height="50" as="geometry" />
        </mxCell>
        <mxCell id="xTgatZesqlkthAEV7MEO-6" value="открытие &lt;br&gt;удалось?" style="strokeWidth=2;html=1;shape=mxgraph.flowchart.decision;whiteSpace=wrap;fontSize=10;" vertex="1" parent="1">
          <mxGeometry x="60" y="340" width="150" height="75" as="geometry" />
        </mxCell>
        <mxCell id="Wc1Usu2KH1ww_NryrML_-7" style="edgeStyle=orthogonalEdgeStyle;rounded=0;orthogonalLoop=1;jettySize=auto;html=1;entryX=0.5;entryY=0;entryDx=0;entryDy=0;endArrow=none;endFill=0;" edge="1" parent="1" source="xTgatZesqlkthAEV7MEO-7" target="Wc1Usu2KH1ww_NryrML_-5">
          <mxGeometry relative="1" as="geometry" />
        </mxCell>
        <mxCell id="xTgatZesqlkthAEV7MEO-7" value="ввод возможен?" style="strokeWidth=2;html=1;shape=mxgraph.flowchart.decision;whiteSpace=wrap;fontSize=10;" vertex="1" parent="1">
          <mxGeometry x="208" y="427" width="150" height="75" as="geometry" />
        </mxCell>
        <mxCell id="skBIMLDtU99hLIkvM2LE-13" value="" style="edgeStyle=orthogonalEdgeStyle;rounded=0;orthogonalLoop=1;jettySize=auto;html=1;endArrow=none;endFill=0;" edge="1" parent="1" source="skBIMLDtU99hLIkvM2LE-1" target="skBIMLDtU99hLIkvM2LE-2">
          <mxGeometry relative="1" as="geometry" />
        </mxCell>
        <mxCell id="skBIMLDtU99hLIkvM2LE-14" style="edgeStyle=orthogonalEdgeStyle;rounded=0;orthogonalLoop=1;jettySize=auto;html=1;entryX=0.5;entryY=0;entryDx=0;entryDy=0;endArrow=none;endFill=0;" edge="1" parent="1" source="skBIMLDtU99hLIkvM2LE-1" target="skBIMLDtU99hLIkvM2LE-4">
          <mxGeometry relative="1" as="geometry" />
        </mxCell>
        <mxCell id="skBIMLDtU99hLIkvM2LE-27" value="&amp;nbsp;да&amp;nbsp;" style="edgeLabel;html=1;align=center;verticalAlign=middle;resizable=0;points=[];" vertex="1" connectable="0" parent="skBIMLDtU99hLIkvM2LE-14">
          <mxGeometry x="-0.5029" y="-1" relative="1" as="geometry">
            <mxPoint as="offset" />
          </mxGeometry>
        </mxCell>
        <mxCell id="skBIMLDtU99hLIkvM2LE-1" value="строка привысила &lt;br&gt;лимит памяти?" style="strokeWidth=2;html=1;shape=mxgraph.flowchart.decision;whiteSpace=wrap;fontSize=10;" vertex="1" parent="1">
          <mxGeometry x="383" y="520" width="150" height="75" as="geometry" />
        </mxCell>
        <mxCell id="skBIMLDtU99hLIkvM2LE-22" style="edgeStyle=orthogonalEdgeStyle;rounded=0;orthogonalLoop=1;jettySize=auto;html=1;" edge="1" parent="1" source="skBIMLDtU99hLIkvM2LE-2">
          <mxGeometry relative="1" as="geometry">
            <mxPoint x="283" y="402" as="targetPoint" />
            <Array as="points">
              <mxPoint x="458" y="864" />
              <mxPoint x="759" y="864" />
              <mxPoint x="759" y="402" />
            </Array>
          </mxGeometry>
        </mxCell>
        <mxCell id="skBIMLDtU99hLIkvM2LE-2" value="&lt;font style=&quot;font-size: 10px;&quot;&gt;запись текста&lt;/font&gt;" style="rounded=0;whiteSpace=wrap;html=1;absoluteArcSize=1;arcSize=14;strokeWidth=2;" vertex="1" parent="1">
          <mxGeometry x="420.5" y="642" width="75" height="50" as="geometry" />
        </mxCell>
        <mxCell id="skBIMLDtU99hLIkvM2LE-24" style="edgeStyle=orthogonalEdgeStyle;rounded=0;orthogonalLoop=1;jettySize=auto;html=1;endArrow=none;endFill=0;" edge="1" parent="1" source="skBIMLDtU99hLIkvM2LE-3">
          <mxGeometry relative="1" as="geometry">
            <mxPoint x="636.4999999999999" y="864.1154104379507" as="targetPoint" />
          </mxGeometry>
        </mxCell>
        <mxCell id="skBIMLDtU99hLIkvM2LE-3" value="&lt;font style=&quot;font-size: 10px;&quot;&gt;globalErrorFlag = 1;&lt;/font&gt;" style="rounded=0;whiteSpace=wrap;html=1;absoluteArcSize=1;arcSize=14;strokeWidth=2;" vertex="1" parent="1">
          <mxGeometry x="599.5" y="746" width="75" height="50" as="geometry" />
        </mxCell>
        <mxCell id="skBIMLDtU99hLIkvM2LE-15" value="" style="edgeStyle=orthogonalEdgeStyle;rounded=0;orthogonalLoop=1;jettySize=auto;html=1;endArrow=none;endFill=0;" edge="1" parent="1" source="skBIMLDtU99hLIkvM2LE-4" target="skBIMLDtU99hLIkvM2LE-3">
          <mxGeometry relative="1" as="geometry" />
        </mxCell>
        <mxCell id="skBIMLDtU99hLIkvM2LE-4" value="сообщение об ошибке" style="shape=parallelogram;html=1;strokeWidth=2;perimeter=parallelogramPerimeter;whiteSpace=wrap;rounded=0;arcSize=12;size=0.23;fontSize=10;" vertex="1" parent="1">
          <mxGeometry x="587" y="642" width="100" height="50" as="geometry" />
        </mxCell>
        <mxCell id="skBIMLDtU99hLIkvM2LE-11" style="edgeStyle=orthogonalEdgeStyle;rounded=0;orthogonalLoop=1;jettySize=auto;html=1;entryX=0.5;entryY=0;entryDx=0;entryDy=0;entryPerimeter=0;exitX=1;exitY=0.5;exitDx=0;exitDy=0;exitPerimeter=0;endArrow=none;endFill=0;" edge="1" parent="1" source="xTgatZesqlkthAEV7MEO-6" target="xTgatZesqlkthAEV7MEO-7">
          <mxGeometry relative="1" as="geometry" />
        </mxCell>
        <mxCell id="skBIMLDtU99hLIkvM2LE-25" value="&amp;nbsp;да&amp;nbsp;" style="edgeLabel;html=1;align=center;verticalAlign=middle;resizable=0;points=[];" vertex="1" connectable="0" parent="skBIMLDtU99hLIkvM2LE-11">
          <mxGeometry x="-0.5065" relative="1" as="geometry">
            <mxPoint as="offset" />
          </mxGeometry>
        </mxCell>
        <mxCell id="skBIMLDtU99hLIkvM2LE-19" style="edgeStyle=orthogonalEdgeStyle;rounded=0;orthogonalLoop=1;jettySize=auto;html=1;entryX=0.5;entryY=0;entryDx=0;entryDy=0;entryPerimeter=0;endArrow=none;endFill=0;" edge="1" parent="1" source="xTgatZesqlkthAEV7MEO-7" target="skBIMLDtU99hLIkvM2LE-1">
          <mxGeometry relative="1" as="geometry" />
        </mxCell>
        <mxCell id="skBIMLDtU99hLIkvM2LE-26" value="&amp;nbsp;да&amp;nbsp;" style="edgeLabel;html=1;align=center;verticalAlign=middle;resizable=0;points=[];" vertex="1" connectable="0" parent="skBIMLDtU99hLIkvM2LE-19">
          <mxGeometry x="-0.3826" y="1" relative="1" as="geometry">
            <mxPoint as="offset" />
          </mxGeometry>
        </mxCell>
        <mxCell id="skBIMLDtU99hLIkvM2LE-20" style="edgeStyle=orthogonalEdgeStyle;rounded=0;orthogonalLoop=1;jettySize=auto;html=1;entryX=0.5;entryY=0;entryDx=0;entryDy=0;endArrow=none;endFill=0;entryPerimeter=0;" edge="1" parent="1" source="xTgatZesqlkthAEV7MEO-6" target="Wc1Usu2KH1ww_NryrML_-1">
          <mxGeometry relative="1" as="geometry">
            <mxPoint x="135" y="968" as="targetPoint" />
          </mxGeometry>
        </mxCell>
        <mxCell id="Wc1Usu2KH1ww_NryrML_-1" value="Конец А3" style="strokeWidth=2;html=1;shape=mxgraph.flowchart.terminator;whiteSpace=wrap;fontSize=10;" vertex="1" parent="1">
          <mxGeometry x="85" y="1054" width="100" height="50" as="geometry" />
        </mxCell>
        <mxCell id="Wc1Usu2KH1ww_NryrML_-5" value="&lt;font style=&quot;font-size: 10px;&quot;&gt;закрытие файла&lt;/font&gt;" style="rounded=0;whiteSpace=wrap;html=1;absoluteArcSize=1;arcSize=14;strokeWidth=2;" vertex="1" parent="1">
          <mxGeometry x="245.5" y="932" width="75" height="50" as="geometry" />
        </mxCell>
        <mxCell id="Wc1Usu2KH1ww_NryrML_-8" style="edgeStyle=orthogonalEdgeStyle;rounded=0;orthogonalLoop=1;jettySize=auto;html=1;entryX=0.5;entryY=0;entryDx=0;entryDy=0;entryPerimeter=0;endArrow=none;endFill=0;" edge="1" parent="1" source="Wc1Usu2KH1ww_NryrML_-5" target="Wc1Usu2KH1ww_NryrML_-1">
          <mxGeometry relative="1" as="geometry">
            <Array as="points">
              <mxPoint x="283" y="1024" />
              <mxPoint x="135" y="1024" />
            </Array>
          </mxGeometry>
        </mxCell>
      </root>
    </mxGraphModel>
  </diagram>
  <diagram id="fse-KRhXVnmDkz87PQbr" name="removeNewline">
    <mxGraphModel dx="1050" dy="669" grid="0" gridSize="10" guides="1" tooltips="1" connect="1" arrows="0" fold="1" page="1" pageScale="1" pageWidth="827" pageHeight="1169" math="0" shadow="0">
      <root>
        <mxCell id="0" />
        <mxCell id="1" parent="0" />
        <mxCell id="jDX0-8LO1n_jQNqq7wsP-8" value="" style="edgeStyle=orthogonalEdgeStyle;rounded=0;orthogonalLoop=1;jettySize=auto;html=1;endArrow=none;endFill=0;" parent="1" source="CQHmUcv-qm-jv_di8kbp-1" target="jDX0-8LO1n_jQNqq7wsP-3" edge="1">
          <mxGeometry relative="1" as="geometry" />
        </mxCell>
        <mxCell id="CQHmUcv-qm-jv_di8kbp-1" value="removeNewline(&lt;br&gt;str)" style="strokeWidth=2;html=1;shape=mxgraph.flowchart.terminator;whiteSpace=wrap;fontSize=10;" parent="1" vertex="1">
          <mxGeometry x="60" y="31" width="100" height="50" as="geometry" />
        </mxCell>
        <mxCell id="jDX0-8LO1n_jQNqq7wsP-1" value="Конец" style="strokeWidth=2;html=1;shape=mxgraph.flowchart.terminator;whiteSpace=wrap;fontSize=10;" parent="1" vertex="1">
          <mxGeometry x="60" y="604" width="100" height="50" as="geometry" />
        </mxCell>
        <mxCell id="jDX0-8LO1n_jQNqq7wsP-2" value="i &amp;lt; 4096?" style="strokeWidth=2;html=1;shape=mxgraph.flowchart.decision;whiteSpace=wrap;fontSize=10;" parent="1" vertex="1">
          <mxGeometry x="60" y="173" width="100" height="50" as="geometry" />
        </mxCell>
        <mxCell id="jDX0-8LO1n_jQNqq7wsP-9" value="" style="edgeStyle=orthogonalEdgeStyle;rounded=0;orthogonalLoop=1;jettySize=auto;html=1;endArrow=none;endFill=0;" parent="1" source="jDX0-8LO1n_jQNqq7wsP-3" target="jDX0-8LO1n_jQNqq7wsP-2" edge="1">
          <mxGeometry relative="1" as="geometry" />
        </mxCell>
        <mxCell id="jDX0-8LO1n_jQNqq7wsP-3" value="&lt;font style=&quot;font-size: 10px;&quot;&gt;i = 0&lt;/font&gt;" style="rounded=0;whiteSpace=wrap;html=1;absoluteArcSize=1;arcSize=14;strokeWidth=2;" parent="1" vertex="1">
          <mxGeometry x="72.5" y="102" width="75" height="50" as="geometry" />
        </mxCell>
        <mxCell id="jDX0-8LO1n_jQNqq7wsP-11" style="edgeStyle=orthogonalEdgeStyle;rounded=0;orthogonalLoop=1;jettySize=auto;html=1;entryX=0.5;entryY=0;entryDx=0;entryDy=0;endArrow=none;endFill=0;" parent="1" source="jDX0-8LO1n_jQNqq7wsP-4" target="jDX0-8LO1n_jQNqq7wsP-6" edge="1">
          <mxGeometry relative="1" as="geometry" />
        </mxCell>
        <mxCell id="jDX0-8LO1n_jQNqq7wsP-18" value="&amp;nbsp;да&amp;nbsp;" style="edgeLabel;html=1;align=center;verticalAlign=middle;resizable=0;points=[];" parent="jDX0-8LO1n_jQNqq7wsP-11" vertex="1" connectable="0">
          <mxGeometry x="-0.4017" relative="1" as="geometry">
            <mxPoint as="offset" />
          </mxGeometry>
        </mxCell>
        <mxCell id="jDX0-8LO1n_jQNqq7wsP-12" style="edgeStyle=orthogonalEdgeStyle;rounded=0;orthogonalLoop=1;jettySize=auto;html=1;entryX=0.5;entryY=0;entryDx=0;entryDy=0;endArrow=none;endFill=0;" parent="1" source="jDX0-8LO1n_jQNqq7wsP-4" target="jDX0-8LO1n_jQNqq7wsP-7" edge="1">
          <mxGeometry relative="1" as="geometry" />
        </mxCell>
        <mxCell id="jDX0-8LO1n_jQNqq7wsP-4" value="элемент - конец &lt;br&gt;строки или пробел?" style="strokeWidth=2;html=1;shape=mxgraph.flowchart.decision;whiteSpace=wrap;fontSize=10;" parent="1" vertex="1">
          <mxGeometry x="158.5" y="238" width="131" height="74" as="geometry" />
        </mxCell>
        <mxCell id="jDX0-8LO1n_jQNqq7wsP-13" style="edgeStyle=orthogonalEdgeStyle;rounded=0;orthogonalLoop=1;jettySize=auto;html=1;entryX=0.5;entryY=0;entryDx=0;entryDy=0;endArrow=none;endFill=0;exitX=0.509;exitY=1.015;exitDx=0;exitDy=0;exitPerimeter=0;" parent="1" source="MrfTmVYOeOSlTXZQFW2x-1" target="jDX0-8LO1n_jQNqq7wsP-7" edge="1">
          <mxGeometry relative="1" as="geometry">
            <Array as="points">
              <mxPoint x="372" y="442" />
              <mxPoint x="372" y="465" />
              <mxPoint x="224" y="465" />
            </Array>
            <mxPoint x="373" y="423" as="sourcePoint" />
          </mxGeometry>
        </mxCell>
        <mxCell id="MrfTmVYOeOSlTXZQFW2x-2" style="edgeStyle=orthogonalEdgeStyle;rounded=0;orthogonalLoop=1;jettySize=auto;html=1;exitX=0.5;exitY=1;exitDx=0;exitDy=0;entryX=0.5;entryY=0;entryDx=0;entryDy=0;endArrow=none;endFill=0;" parent="1" source="jDX0-8LO1n_jQNqq7wsP-6" target="MrfTmVYOeOSlTXZQFW2x-1" edge="1">
          <mxGeometry relative="1" as="geometry" />
        </mxCell>
        <mxCell id="jDX0-8LO1n_jQNqq7wsP-6" value="&lt;span style=&quot;font-size: 10px;&quot;&gt;str[i] = &#39;\0&#39;;&lt;br&gt;&lt;/span&gt;" style="rounded=0;whiteSpace=wrap;html=1;absoluteArcSize=1;arcSize=14;strokeWidth=2;" parent="1" vertex="1">
          <mxGeometry x="333" y="318" width="75" height="50" as="geometry" />
        </mxCell>
        <mxCell id="jDX0-8LO1n_jQNqq7wsP-15" style="edgeStyle=orthogonalEdgeStyle;rounded=0;orthogonalLoop=1;jettySize=auto;html=1;" parent="1" source="jDX0-8LO1n_jQNqq7wsP-7" edge="1">
          <mxGeometry relative="1" as="geometry">
            <mxPoint x="110" y="162" as="targetPoint" />
            <Array as="points">
              <mxPoint x="224" y="553" />
              <mxPoint x="450" y="553" />
              <mxPoint x="450" y="162" />
            </Array>
          </mxGeometry>
        </mxCell>
        <mxCell id="jDX0-8LO1n_jQNqq7wsP-7" value="&lt;span style=&quot;font-size: 10px;&quot;&gt;i = i + 1;&lt;br&gt;&lt;/span&gt;" style="rounded=0;whiteSpace=wrap;html=1;absoluteArcSize=1;arcSize=14;strokeWidth=2;" parent="1" vertex="1">
          <mxGeometry x="186.5" y="483" width="75" height="50" as="geometry" />
        </mxCell>
        <mxCell id="jDX0-8LO1n_jQNqq7wsP-10" style="edgeStyle=orthogonalEdgeStyle;rounded=0;orthogonalLoop=1;jettySize=auto;html=1;entryX=0.5;entryY=0;entryDx=0;entryDy=0;entryPerimeter=0;endArrow=none;endFill=0;" parent="1" source="jDX0-8LO1n_jQNqq7wsP-2" target="jDX0-8LO1n_jQNqq7wsP-4" edge="1">
          <mxGeometry relative="1" as="geometry">
            <Array as="points">
              <mxPoint x="224" y="199" />
            </Array>
          </mxGeometry>
        </mxCell>
        <mxCell id="jDX0-8LO1n_jQNqq7wsP-17" value="&amp;nbsp;да&amp;nbsp;" style="edgeLabel;html=1;align=center;verticalAlign=middle;resizable=0;points=[];" parent="jDX0-8LO1n_jQNqq7wsP-10" vertex="1" connectable="0">
          <mxGeometry x="-0.5133" y="1" relative="1" as="geometry">
            <mxPoint as="offset" />
          </mxGeometry>
        </mxCell>
        <mxCell id="jDX0-8LO1n_jQNqq7wsP-16" style="edgeStyle=orthogonalEdgeStyle;rounded=0;orthogonalLoop=1;jettySize=auto;html=1;entryX=0.5;entryY=0;entryDx=0;entryDy=0;entryPerimeter=0;endArrow=none;endFill=0;" parent="1" source="jDX0-8LO1n_jQNqq7wsP-2" target="jDX0-8LO1n_jQNqq7wsP-1" edge="1">
          <mxGeometry relative="1" as="geometry" />
        </mxCell>
        <mxCell id="MrfTmVYOeOSlTXZQFW2x-1" value="&lt;span style=&quot;font-size: 10px;&quot;&gt;i = 4096;&lt;br&gt;&lt;/span&gt;" style="rounded=0;whiteSpace=wrap;html=1;absoluteArcSize=1;arcSize=14;strokeWidth=2;" parent="1" vertex="1">
          <mxGeometry x="333" y="391" width="75" height="50" as="geometry" />
        </mxCell>
      </root>
    </mxGraphModel>
  </diagram>
  <diagram id="7n-LgYwDKb8K13MUmqIw" name="replaceWord">
    <mxGraphModel dx="1313" dy="836" grid="0" gridSize="10" guides="1" tooltips="1" connect="1" arrows="1" fold="1" page="1" pageScale="1" pageWidth="827" pageHeight="1169" math="0" shadow="0">
      <root>
        <mxCell id="0" />
        <mxCell id="1" parent="0" />
        <mxCell id="tH8wfbbmfw6-ZqYjcoA6-19" value="" style="edgeStyle=orthogonalEdgeStyle;rounded=0;orthogonalLoop=1;jettySize=auto;html=1;endArrow=none;endFill=0;" parent="1" source="tH8wfbbmfw6-ZqYjcoA6-1" target="tH8wfbbmfw6-ZqYjcoA6-3" edge="1">
          <mxGeometry relative="1" as="geometry" />
        </mxCell>
        <mxCell id="tH8wfbbmfw6-ZqYjcoA6-1" value="replaceWord(&lt;br&gt;src, oldWord,&lt;br&gt;newWord, dest)" style="strokeWidth=2;html=1;shape=mxgraph.flowchart.terminator;whiteSpace=wrap;fontSize=10;" parent="1" vertex="1">
          <mxGeometry x="60" y="31" width="100" height="50" as="geometry" />
        </mxCell>
        <mxCell id="tH8wfbbmfw6-ZqYjcoA6-2" value="Конец" style="strokeWidth=2;html=1;shape=mxgraph.flowchart.terminator;whiteSpace=wrap;fontSize=10;" parent="1" vertex="1">
          <mxGeometry x="60" y="917" width="100" height="48" as="geometry" />
        </mxCell>
        <mxCell id="tH8wfbbmfw6-ZqYjcoA6-31" style="edgeStyle=orthogonalEdgeStyle;rounded=0;orthogonalLoop=1;jettySize=auto;html=1;entryX=0.5;entryY=0;entryDx=0;entryDy=0;endArrow=none;endFill=0;" parent="1" source="tH8wfbbmfw6-ZqYjcoA6-3" target="tH8wfbbmfw6-ZqYjcoA6-30" edge="1">
          <mxGeometry relative="1" as="geometry" />
        </mxCell>
        <mxCell id="tH8wfbbmfw6-ZqYjcoA6-3" value="в строке src остались &lt;br&gt;вхождения oldWord?" style="strokeWidth=2;html=1;shape=mxgraph.flowchart.decision;whiteSpace=wrap;fontSize=10;" parent="1" vertex="1">
          <mxGeometry x="33" y="127" width="154" height="77" as="geometry" />
        </mxCell>
        <mxCell id="tH8wfbbmfw6-ZqYjcoA6-21" style="edgeStyle=orthogonalEdgeStyle;rounded=0;orthogonalLoop=1;jettySize=auto;html=1;entryX=0.5;entryY=0;entryDx=0;entryDy=0;endArrow=none;endFill=0;" parent="1" source="tH8wfbbmfw6-ZqYjcoA6-5" target="tH8wfbbmfw6-ZqYjcoA6-11" edge="1">
          <mxGeometry relative="1" as="geometry" />
        </mxCell>
        <mxCell id="tH8wfbbmfw6-ZqYjcoA6-36" value="&amp;nbsp;да&amp;nbsp;" style="edgeLabel;html=1;align=center;verticalAlign=middle;resizable=0;points=[];" parent="tH8wfbbmfw6-ZqYjcoA6-21" vertex="1" connectable="0">
          <mxGeometry x="-0.4615" y="1" relative="1" as="geometry">
            <mxPoint as="offset" />
          </mxGeometry>
        </mxCell>
        <mxCell id="tH8wfbbmfw6-ZqYjcoA6-23" style="edgeStyle=orthogonalEdgeStyle;rounded=0;orthogonalLoop=1;jettySize=auto;html=1;entryX=0.5;entryY=0;entryDx=0;entryDy=0;endArrow=none;endFill=0;" parent="1" source="tH8wfbbmfw6-ZqYjcoA6-5" target="tH8wfbbmfw6-ZqYjcoA6-15" edge="1">
          <mxGeometry relative="1" as="geometry" />
        </mxCell>
        <mxCell id="tH8wfbbmfw6-ZqYjcoA6-5" value="найденное вхождение -&amp;nbsp;&lt;br&gt;не часть другого слова?" style="strokeWidth=2;html=1;shape=mxgraph.flowchart.decision;whiteSpace=wrap;fontSize=10;" parent="1" vertex="1">
          <mxGeometry x="201.5" y="223" width="154" height="77" as="geometry" />
        </mxCell>
        <mxCell id="tH8wfbbmfw6-ZqYjcoA6-27" style="edgeStyle=orthogonalEdgeStyle;rounded=0;orthogonalLoop=1;jettySize=auto;html=1;entryX=0.5;entryY=0;entryDx=0;entryDy=0;endArrow=none;endFill=0;" parent="1" source="tH8wfbbmfw6-ZqYjcoA6-11" target="tH8wfbbmfw6-ZqYjcoA6-12" edge="1">
          <mxGeometry relative="1" as="geometry" />
        </mxCell>
        <mxCell id="tH8wfbbmfw6-ZqYjcoA6-11" value="&lt;font style=&quot;font-size: 10px;&quot;&gt;добавить в строку dest часть строки src до вхождения oldWord&lt;/font&gt;" style="rounded=0;whiteSpace=wrap;html=1;absoluteArcSize=1;arcSize=14;strokeWidth=2;" parent="1" vertex="1">
          <mxGeometry x="380" y="324" width="107" height="65" as="geometry" />
        </mxCell>
        <mxCell id="tH8wfbbmfw6-ZqYjcoA6-28" style="edgeStyle=orthogonalEdgeStyle;rounded=0;orthogonalLoop=1;jettySize=auto;html=1;entryX=0.5;entryY=0;entryDx=0;entryDy=0;endArrow=none;endFill=0;" parent="1" source="tH8wfbbmfw6-ZqYjcoA6-12" target="tH8wfbbmfw6-ZqYjcoA6-13" edge="1">
          <mxGeometry relative="1" as="geometry" />
        </mxCell>
        <mxCell id="tH8wfbbmfw6-ZqYjcoA6-12" value="&lt;font style=&quot;font-size: 10px;&quot;&gt;обновить длину строки dest&lt;/font&gt;" style="rounded=0;whiteSpace=wrap;html=1;absoluteArcSize=1;arcSize=14;strokeWidth=2;" parent="1" vertex="1">
          <mxGeometry x="380" y="414" width="107" height="65" as="geometry" />
        </mxCell>
        <mxCell id="tH8wfbbmfw6-ZqYjcoA6-38" value="" style="edgeStyle=orthogonalEdgeStyle;rounded=0;orthogonalLoop=1;jettySize=auto;html=1;endArrow=none;endFill=0;" parent="1" source="tH8wfbbmfw6-ZqYjcoA6-13" target="tH8wfbbmfw6-ZqYjcoA6-37" edge="1">
          <mxGeometry relative="1" as="geometry" />
        </mxCell>
        <mxCell id="tH8wfbbmfw6-ZqYjcoA6-13" value="&lt;font style=&quot;font-size: 10px;&quot;&gt;добавить newWord в строку dest&lt;/font&gt;" style="rounded=0;whiteSpace=wrap;html=1;absoluteArcSize=1;arcSize=14;strokeWidth=2;" parent="1" vertex="1">
          <mxGeometry x="380" y="504" width="107" height="65" as="geometry" />
        </mxCell>
        <mxCell id="tH8wfbbmfw6-ZqYjcoA6-35" style="edgeStyle=orthogonalEdgeStyle;rounded=0;orthogonalLoop=1;jettySize=auto;html=1;endArrow=none;endFill=0;" parent="1" source="tH8wfbbmfw6-ZqYjcoA6-14" edge="1">
          <mxGeometry relative="1" as="geometry">
            <mxPoint x="433.5" y="774.0049839824364" as="targetPoint" />
          </mxGeometry>
        </mxCell>
        <mxCell id="tH8wfbbmfw6-ZqYjcoA6-14" value="&lt;font style=&quot;font-size: 10px;&quot;&gt;сдвинуть указатель на вхождение в src на длину oldWord&lt;/font&gt;" style="rounded=0;whiteSpace=wrap;html=1;absoluteArcSize=1;arcSize=14;strokeWidth=2;" parent="1" vertex="1">
          <mxGeometry x="380" y="683" width="107" height="65" as="geometry" />
        </mxCell>
        <mxCell id="tH8wfbbmfw6-ZqYjcoA6-24" value="" style="edgeStyle=orthogonalEdgeStyle;rounded=0;orthogonalLoop=1;jettySize=auto;html=1;endArrow=none;endFill=0;" parent="1" source="tH8wfbbmfw6-ZqYjcoA6-15" target="tH8wfbbmfw6-ZqYjcoA6-17" edge="1">
          <mxGeometry relative="1" as="geometry" />
        </mxCell>
        <mxCell id="tH8wfbbmfw6-ZqYjcoA6-15" value="&lt;font style=&quot;font-size: 10px;&quot;&gt;добавить в строку dest часть строки src до вхождения oldWord + 1 символ&lt;/font&gt;" style="rounded=0;whiteSpace=wrap;html=1;absoluteArcSize=1;arcSize=14;strokeWidth=2;" parent="1" vertex="1">
          <mxGeometry x="225" y="324" width="107" height="65" as="geometry" />
        </mxCell>
        <mxCell id="tH8wfbbmfw6-ZqYjcoA6-25" value="" style="edgeStyle=orthogonalEdgeStyle;rounded=0;orthogonalLoop=1;jettySize=auto;html=1;endArrow=none;endFill=0;" parent="1" source="tH8wfbbmfw6-ZqYjcoA6-17" target="tH8wfbbmfw6-ZqYjcoA6-18" edge="1">
          <mxGeometry relative="1" as="geometry" />
        </mxCell>
        <mxCell id="tH8wfbbmfw6-ZqYjcoA6-17" value="&lt;font style=&quot;font-size: 10px;&quot;&gt;обновить длину строки dest&lt;/font&gt;" style="rounded=0;whiteSpace=wrap;html=1;absoluteArcSize=1;arcSize=14;strokeWidth=2;" parent="1" vertex="1">
          <mxGeometry x="225" y="414" width="107" height="65" as="geometry" />
        </mxCell>
        <mxCell id="tH8wfbbmfw6-ZqYjcoA6-18" value="&lt;font style=&quot;font-size: 10px;&quot;&gt;сдвинуть указатель на вхождение в src на 1 символ&lt;/font&gt;" style="rounded=0;whiteSpace=wrap;html=1;absoluteArcSize=1;arcSize=14;strokeWidth=2;" parent="1" vertex="1">
          <mxGeometry x="225" y="683" width="107" height="65" as="geometry" />
        </mxCell>
        <mxCell id="tH8wfbbmfw6-ZqYjcoA6-20" style="edgeStyle=orthogonalEdgeStyle;rounded=0;orthogonalLoop=1;jettySize=auto;html=1;entryX=0.5;entryY=0;entryDx=0;entryDy=0;entryPerimeter=0;endArrow=none;endFill=0;" parent="1" source="tH8wfbbmfw6-ZqYjcoA6-3" target="tH8wfbbmfw6-ZqYjcoA6-5" edge="1">
          <mxGeometry relative="1" as="geometry" />
        </mxCell>
        <mxCell id="nXRlm3a9UC5xFYfl5DZN-1" value="&amp;nbsp;да&amp;nbsp;" style="edgeLabel;html=1;align=center;verticalAlign=middle;resizable=0;points=[];" parent="tH8wfbbmfw6-ZqYjcoA6-20" vertex="1" connectable="0">
          <mxGeometry x="-0.4405" relative="1" as="geometry">
            <mxPoint as="offset" />
          </mxGeometry>
        </mxCell>
        <mxCell id="tH8wfbbmfw6-ZqYjcoA6-32" value="" style="edgeStyle=orthogonalEdgeStyle;rounded=0;orthogonalLoop=1;jettySize=auto;html=1;endArrow=none;endFill=0;" parent="1" source="tH8wfbbmfw6-ZqYjcoA6-30" target="tH8wfbbmfw6-ZqYjcoA6-2" edge="1">
          <mxGeometry relative="1" as="geometry" />
        </mxCell>
        <mxCell id="tH8wfbbmfw6-ZqYjcoA6-30" value="&lt;font style=&quot;font-size: 10px;&quot;&gt;добавить в строку dest остаток строки src&lt;/font&gt;" style="rounded=0;whiteSpace=wrap;html=1;absoluteArcSize=1;arcSize=14;strokeWidth=2;" parent="1" vertex="1">
          <mxGeometry x="56.5" y="818" width="107" height="63" as="geometry" />
        </mxCell>
        <mxCell id="tH8wfbbmfw6-ZqYjcoA6-33" style="edgeStyle=orthogonalEdgeStyle;rounded=0;orthogonalLoop=1;jettySize=auto;html=1;" parent="1" source="tH8wfbbmfw6-ZqYjcoA6-18" edge="1">
          <mxGeometry relative="1" as="geometry">
            <mxPoint x="110" y="102" as="targetPoint" />
            <Array as="points">
              <mxPoint x="279" y="774" />
              <mxPoint x="580" y="774" />
              <mxPoint x="580" y="102" />
            </Array>
          </mxGeometry>
        </mxCell>
        <mxCell id="tH8wfbbmfw6-ZqYjcoA6-39" value="" style="edgeStyle=orthogonalEdgeStyle;rounded=0;orthogonalLoop=1;jettySize=auto;html=1;endArrow=none;endFill=0;" parent="1" source="tH8wfbbmfw6-ZqYjcoA6-37" target="tH8wfbbmfw6-ZqYjcoA6-14" edge="1">
          <mxGeometry relative="1" as="geometry" />
        </mxCell>
        <mxCell id="tH8wfbbmfw6-ZqYjcoA6-37" value="&lt;font style=&quot;font-size: 10px;&quot;&gt;обновить длину строки dest&lt;/font&gt;" style="rounded=0;whiteSpace=wrap;html=1;absoluteArcSize=1;arcSize=14;strokeWidth=2;" parent="1" vertex="1">
          <mxGeometry x="380" y="593" width="107" height="65" as="geometry" />
        </mxCell>
      </root>
    </mxGraphModel>
  </diagram>
  <diagram id="lJSGJlU1fwaZf5sT0gzq" name="Структура">
    <mxGraphModel dx="875" dy="558" grid="0" gridSize="10" guides="1" tooltips="1" connect="1" arrows="1" fold="1" page="1" pageScale="1" pageWidth="827" pageHeight="1169" math="0" shadow="0">
      <root>
        <mxCell id="0" />
        <mxCell id="1" parent="0" />
        <mxCell id="eZcfJkgH2jdxYQXa3tqY-1" value="main" style="rounded=1;whiteSpace=wrap;html=1;" vertex="1" parent="1">
          <mxGeometry x="354" y="44" width="120" height="60" as="geometry" />
        </mxCell>
        <mxCell id="eZcfJkgH2jdxYQXa3tqY-4" value="consoleError" style="rounded=1;whiteSpace=wrap;html=1;" vertex="1" parent="1">
          <mxGeometry x="133" y="212" width="120" height="60" as="geometry" />
        </mxCell>
        <mxCell id="eZcfJkgH2jdxYQXa3tqY-5" value="removeNewline" style="rounded=1;whiteSpace=wrap;html=1;" vertex="1" parent="1">
          <mxGeometry x="284" y="212" width="120" height="60" as="geometry" />
        </mxCell>
        <mxCell id="eZcfJkgH2jdxYQXa3tqY-7" value="replaceWord" style="rounded=1;whiteSpace=wrap;html=1;" vertex="1" parent="1">
          <mxGeometry x="437" y="212" width="120" height="60" as="geometry" />
        </mxCell>
        <mxCell id="eZcfJkgH2jdxYQXa3tqY-8" value="isInvalid" style="rounded=1;whiteSpace=wrap;html=1;" vertex="1" parent="1">
          <mxGeometry x="590" y="212" width="120" height="60" as="geometry" />
        </mxCell>
        <mxCell id="eZcfJkgH2jdxYQXa3tqY-9" value="isDelimiter" style="rounded=1;whiteSpace=wrap;html=1;" vertex="1" parent="1">
          <mxGeometry x="437" y="350" width="120" height="60" as="geometry" />
        </mxCell>
        <mxCell id="eZcfJkgH2jdxYQXa3tqY-12" value="" style="endArrow=classic;html=1;rounded=0;entryX=0.5;entryY=0;entryDx=0;entryDy=0;exitX=0.5;exitY=1;exitDx=0;exitDy=0;" edge="1" parent="1" source="eZcfJkgH2jdxYQXa3tqY-1" target="eZcfJkgH2jdxYQXa3tqY-4">
          <mxGeometry width="50" height="50" relative="1" as="geometry">
            <mxPoint x="531" y="104" as="sourcePoint" />
            <mxPoint x="229" y="152" as="targetPoint" />
          </mxGeometry>
        </mxCell>
        <mxCell id="eZcfJkgH2jdxYQXa3tqY-13" value="" style="endArrow=classic;html=1;rounded=0;entryX=0.5;entryY=0;entryDx=0;entryDy=0;exitX=0.5;exitY=1;exitDx=0;exitDy=0;" edge="1" parent="1" source="eZcfJkgH2jdxYQXa3tqY-1" target="eZcfJkgH2jdxYQXa3tqY-5">
          <mxGeometry width="50" height="50" relative="1" as="geometry">
            <mxPoint x="452" y="104" as="sourcePoint" />
            <mxPoint x="301" y="152" as="targetPoint" />
          </mxGeometry>
        </mxCell>
        <mxCell id="eZcfJkgH2jdxYQXa3tqY-14" value="" style="endArrow=classic;html=1;rounded=0;entryX=0.5;entryY=0;entryDx=0;entryDy=0;exitX=0.5;exitY=1;exitDx=0;exitDy=0;" edge="1" parent="1" source="eZcfJkgH2jdxYQXa3tqY-1" target="eZcfJkgH2jdxYQXa3tqY-7">
          <mxGeometry width="50" height="50" relative="1" as="geometry">
            <mxPoint x="421" y="104" as="sourcePoint" />
            <mxPoint x="421" y="152" as="targetPoint" />
          </mxGeometry>
        </mxCell>
        <mxCell id="eZcfJkgH2jdxYQXa3tqY-15" value="" style="endArrow=classic;html=1;rounded=0;entryX=0.5;entryY=0;entryDx=0;entryDy=0;exitX=0.5;exitY=1;exitDx=0;exitDy=0;" edge="1" parent="1" source="eZcfJkgH2jdxYQXa3tqY-1" target="eZcfJkgH2jdxYQXa3tqY-8">
          <mxGeometry width="50" height="50" relative="1" as="geometry">
            <mxPoint x="428" y="119" as="sourcePoint" />
            <mxPoint x="574" y="152" as="targetPoint" />
          </mxGeometry>
        </mxCell>
        <mxCell id="eZcfJkgH2jdxYQXa3tqY-16" value="" style="endArrow=classic;html=1;rounded=0;entryX=0.5;entryY=0;entryDx=0;entryDy=0;exitX=0.5;exitY=1;exitDx=0;exitDy=0;" edge="1" parent="1" source="eZcfJkgH2jdxYQXa3tqY-7" target="eZcfJkgH2jdxYQXa3tqY-9">
          <mxGeometry width="50" height="50" relative="1" as="geometry">
            <mxPoint x="466" y="277" as="sourcePoint" />
            <mxPoint x="466" y="325" as="targetPoint" />
          </mxGeometry>
        </mxCell>
      </root>
    </mxGraphModel>
  </diagram>
</mxfile>
